<svg width="569" height="569" viewBox="0 0 569 569" fill="none" xmlns="http://www.w3.org/2000/svg">
<path d="M174.824 332.764C174.064 330.407 172.677 328.301 170.814 326.67L75.7907 244.215C74.3193 242.883 72.5274 241.955 70.5901 241.522C68.6528 241.09 66.6363 241.167 64.7379 241.747L15.6738 257.737C6.84204 260.626 5.02095 273.163 12.5316 279.653L95.1648 351.349C97.0202 352.989 98.4014 355.098 99.1643 357.454C99.9271 359.81 100.044 362.327 99.5017 364.744L75.0486 471.346C72.8222 481.036 81.6487 490.083 90.5015 487.194L139.539 471.199C141.423 470.552 143.106 469.426 144.422 467.932C145.739 466.438 146.645 464.627 147.05 462.677L175.177 340.044C175.719 337.63 175.598 335.114 174.824 332.764Z" fill="white"/>
<path d="M17.7478 264.094L66.7856 248.104C67.6979 247.819 68.6689 247.778 69.6022 247.984C70.5356 248.19 71.399 248.636 72.1067 249.278L163.687 328.79L163.298 329.317L71.7173 249.81C71.0946 249.24 70.3336 248.843 69.51 248.658C68.6864 248.474 67.8288 248.508 67.0224 248.757L17.9636 264.768C17.0903 265.064 16.3195 265.603 15.7416 266.322C15.1637 267.041 14.8025 267.909 14.7004 268.826C14.5563 269.788 14.6583 270.771 14.997 271.683C15.3357 272.595 15.9 273.407 16.6373 274.042L16.2425 274.568C15.4098 273.852 14.773 272.935 14.3918 271.905C14.0106 270.875 13.8977 269.764 14.0635 268.679C14.1777 267.643 14.5851 266.662 15.2377 265.85C15.8903 265.038 16.7611 264.429 17.7478 264.094Z" fill="white"/>
<path d="M167.551 342.338L168.182 342.538L141.055 460.767C140.862 461.7 140.43 462.567 139.801 463.282C139.171 463.997 138.367 464.536 137.466 464.846L88.4227 480.836C87.4285 481.148 86.3658 481.17 85.3597 480.899C84.3536 480.627 83.446 480.074 82.7437 479.304C81.9725 478.522 81.4129 477.557 81.1174 476.499C80.8218 475.441 80.8001 474.325 81.0541 473.257L81.6857 473.457C81.4588 474.401 81.475 475.387 81.7327 476.323C81.9904 477.259 82.4813 478.115 83.1595 478.809C83.7825 479.49 84.5867 479.98 85.4778 480.22C86.3689 480.461 87.3101 480.442 88.1911 480.167L137.229 464.172C138.023 463.897 138.732 463.42 139.286 462.788C139.84 462.156 140.219 461.39 140.387 460.567L167.551 342.338Z" fill="white"/>
<path d="M552.426 257.737L503.383 241.747C501.479 241.161 499.456 241.08 497.511 241.513C495.567 241.946 493.769 242.877 492.293 244.215L397.286 326.67C395.426 328.305 394.039 330.41 393.271 332.764C392.502 335.119 392.38 337.636 392.918 340.054L421.05 462.688C421.453 464.638 422.357 466.449 423.673 467.943C424.989 469.437 426.672 470.563 428.555 471.209L477.598 487.204C486.451 490.094 495.272 481.046 493.051 471.357L468.598 364.744C468.061 362.327 468.183 359.81 468.95 357.455C469.718 355.101 471.103 352.996 472.961 351.36L555.568 279.663C563.074 273.163 561.279 260.626 552.426 257.737Z" fill="white"/>
<path d="M550.352 264.095L501.309 248.105C500.4 247.823 499.433 247.783 498.504 247.988C497.574 248.194 496.714 248.639 496.009 249.279L404.429 328.791L404.823 329.317L496.404 249.81C497.027 249.24 497.788 248.843 498.611 248.659C499.435 248.474 500.293 248.508 501.099 248.757L550.137 264.752C551.01 265.049 551.781 265.588 552.359 266.307C552.937 267.025 553.298 267.894 553.4 268.81C553.547 269.772 553.446 270.756 553.108 271.668C552.771 272.581 552.206 273.392 551.468 274.026L551.858 274.553C552.691 273.836 553.329 272.92 553.711 271.89C554.093 270.86 554.207 269.749 554.042 268.663C553.925 267.63 553.515 266.651 552.862 265.842C552.208 265.033 551.338 264.427 550.352 264.095Z" fill="white"/>
<path d="M400.534 342.338L399.902 342.538L427.024 460.767C427.217 461.7 427.649 462.567 428.279 463.282C428.908 463.997 429.713 464.536 430.613 464.846L479.651 480.836C480.646 481.149 481.71 481.171 482.717 480.899C483.724 480.628 484.632 480.074 485.336 479.304C486.109 478.523 486.672 477.559 486.971 476.501C487.27 475.443 487.296 474.327 487.046 473.257L486.414 473.457C486.635 474.404 486.613 475.392 486.348 476.328C486.084 477.264 485.587 478.117 484.904 478.809C484.281 479.49 483.477 479.98 482.586 480.22C481.695 480.461 480.753 480.442 479.872 480.167L430.85 464.172C430.056 463.898 429.347 463.421 428.793 462.789C428.239 462.156 427.86 461.391 427.692 460.567L400.534 342.338Z" fill="white"/>
<path d="M403.834 467.63C403.8 465.639 403.248 463.692 402.233 461.979C401.218 460.266 399.774 458.847 398.044 457.862L290.037 393.339C287.901 392.086 285.467 391.429 282.991 391.434C280.514 391.44 278.084 392.108 275.953 393.371L168.245 458.372C166.518 459.365 165.08 460.79 164.07 462.508C163.061 464.225 162.515 466.175 162.487 468.167L162.603 519.747C162.603 529.063 173.972 534.621 182.482 529.484L276.132 472.972C278.261 471.707 280.692 471.036 283.169 471.031C285.647 471.025 288.081 471.685 290.216 472.941L384.113 529.037C392.65 534.137 403.971 528.51 403.95 519.21L403.834 467.63Z" fill="white"/>
<path d="M397.266 519.225L397.15 467.645C397.134 466.692 396.869 465.76 396.383 464.941C395.896 464.121 395.205 463.442 394.376 462.972L290.243 400.765L289.858 401.291L393.992 463.508C394.725 463.925 395.337 464.526 395.767 465.252C396.197 465.977 396.431 466.802 396.445 467.645L396.56 519.225C396.552 520.149 396.28 521.05 395.776 521.824C395.273 522.598 394.559 523.212 393.718 523.594C392.851 524.033 391.887 524.244 390.915 524.208C389.944 524.172 388.998 523.89 388.166 523.389L387.776 523.915C388.717 524.482 389.787 524.801 390.886 524.842C391.984 524.882 393.075 524.643 394.055 524.146C395.003 523.716 395.808 523.025 396.377 522.153C396.945 521.282 397.254 520.266 397.266 519.225Z" fill="white"/>
<path d="M276.168 401.334L275.779 400.808L171.929 463.467C171.102 463.94 170.413 464.622 169.93 465.443C169.447 466.265 169.188 467.199 169.177 468.151L169.293 519.731C169.307 520.773 169.618 521.789 170.19 522.659C170.761 523.53 171.569 524.22 172.519 524.647C173.502 525.14 174.594 525.374 175.693 525.328C176.791 525.282 177.86 524.957 178.798 524.384L178.409 523.858C177.579 524.365 176.634 524.653 175.663 524.694C174.691 524.736 173.725 524.529 172.856 524.095C172.014 523.716 171.297 523.104 170.79 522.332C170.283 521.561 170.006 520.66 169.993 519.737L169.882 468.157C169.892 467.314 170.122 466.488 170.548 465.761C170.975 465.033 171.583 464.43 172.314 464.009L276.168 401.334Z" fill="white"/>
<path d="M272.111 84.291L242.636 41.9376C237.321 34.2901 224.826 36.148 220.747 45.2429L175.904 144.997C174.871 147.252 173.251 149.187 171.214 150.601C169.177 152.015 166.798 152.855 164.324 153.034L55.2013 160.329C45.2642 160.992 39.1641 172.045 44.48 179.693L73.9227 222.046C75.085 223.664 76.6483 224.951 78.4588 225.782C80.2694 226.612 82.2649 226.957 84.2492 226.783L209.773 218.394C212.246 218.214 214.625 217.374 216.662 215.96C218.699 214.546 220.319 212.611 221.352 210.357L272.932 95.6175C273.789 93.8205 274.164 91.8314 274.02 89.8456C273.876 87.8598 273.218 85.9456 272.111 84.291Z" fill="white"/>
<path d="M237.162 45.7534L266.6 88.1069C267.133 88.8973 267.45 89.813 267.521 90.7637C267.592 91.7144 267.414 92.6671 267.005 93.528L217.257 204.151L216.63 203.93L266.379 93.307C266.741 92.546 266.9 91.7036 266.838 90.8628C266.776 90.022 266.496 89.2119 266.026 88.5121L236.583 46.1587C236.046 45.4084 235.307 44.8266 234.451 44.4817C233.595 44.1368 232.659 44.043 231.752 44.2113C230.789 44.3495 229.877 44.7296 229.101 45.3159C228.325 45.9022 227.711 46.6757 227.315 47.564L226.694 47.3429C227.139 46.3389 227.833 45.4647 228.71 44.8027C229.586 44.1406 230.617 43.7125 231.704 43.5587C232.729 43.3677 233.786 43.4727 234.753 43.8614C235.72 44.2502 236.555 44.9065 237.162 45.7534Z" fill="white"/>
<path d="M205.388 211.746V212.41L84.3489 220.494C83.4002 220.579 82.4456 220.416 81.5796 220.019C80.7137 219.622 79.9665 219.005 79.412 218.231L49.9693 175.877C49.3869 175.015 49.0619 174.005 49.032 172.965C49.0022 171.925 49.2689 170.898 49.8009 170.004C50.3265 169.038 51.0884 168.222 52.0154 167.631C52.9423 167.04 54.0039 166.694 55.101 166.625V167.288C54.13 167.347 53.1901 167.653 52.3697 168.176C51.5494 168.699 50.8755 169.422 50.4114 170.277C49.9383 171.07 49.701 171.981 49.7271 172.904C49.7532 173.827 50.0417 174.723 50.5588 175.488L80.0015 217.831C80.4928 218.516 81.154 219.061 81.92 219.412C82.686 219.764 83.5304 219.91 84.37 219.836L205.388 211.746Z" fill="white"/>
<path d="M512.289 160.382L403.166 153.087C400.693 152.908 398.313 152.068 396.276 150.654C394.239 149.24 392.619 147.305 391.587 145.05L346.728 45.2958C342.649 36.2272 330.154 34.3429 324.838 41.9904L295.395 84.3439C294.285 85.9981 293.625 87.9125 293.478 89.8991C293.331 91.8857 293.704 93.8764 294.558 95.6757L346.138 210.415C347.171 212.669 348.791 214.604 350.828 216.018C352.865 217.432 355.244 218.272 357.718 218.452L483.241 226.847C485.225 227.02 487.22 226.674 489.031 225.844C490.841 225.013 492.404 223.727 493.567 222.11L523.01 179.756C528.326 172.109 522.205 161.056 512.289 160.382Z" fill="white"/>
<path d="M330.327 45.7903L300.89 88.149C300.357 88.9385 300.039 89.8533 299.968 90.8032C299.897 91.753 300.075 92.705 300.485 93.5649L350.233 204.214L350.859 203.993L301.111 93.3597C300.748 92.5987 300.59 91.7563 300.652 90.9155C300.714 90.0747 300.994 89.2646 301.464 88.5648L330.906 46.2114C331.441 45.4586 332.181 44.8748 333.037 44.5287C333.893 44.1827 334.83 44.089 335.738 44.2587C336.7 44.396 337.612 44.775 338.388 45.3605C339.164 45.9459 339.779 46.7185 340.175 47.6062L340.796 47.3693C340.35 46.3651 339.656 45.4906 338.78 44.8278C337.904 44.165 336.873 43.7356 335.785 43.5798C334.76 43.3904 333.701 43.4979 332.734 43.8895C331.767 44.2811 330.932 44.9405 330.327 45.7903Z" fill="white"/>
<path d="M362.112 211.799V212.462L483.167 220.531C484.116 220.614 485.071 220.449 485.936 220.051C486.802 219.653 487.549 219.037 488.104 218.262L517.547 175.909C518.131 175.047 518.458 174.035 518.488 172.994C518.518 171.953 518.25 170.924 517.715 170.03C517.19 169.064 516.429 168.247 515.502 167.656C514.575 167.065 513.513 166.719 512.415 166.651V167.314C513.386 167.374 514.326 167.68 515.146 168.203C515.966 168.726 516.64 169.449 517.105 170.304C517.578 171.095 517.815 172.006 517.789 172.928C517.763 173.85 517.475 174.745 516.957 175.509L487.499 217.899C487.008 218.584 486.346 219.129 485.58 219.481C484.814 219.832 483.97 219.978 483.13 219.905L362.112 211.799Z" fill="white"/>
</svg>
